# xmcd
#
# Track frame offsets: 
#        150
#        21872
#        51232
#        77400
#        97422
#        131082
#        149987
#        180117
#        195835
#        217367
#
# Disc length: 3247 seconds
#
# Revision: 1
# Processed by: cddbd v1.5.2PL0 Copyright (c) Steve Scherf et al.
# Submitted via: ExactAudioCopy v0.99pb5
#
DISCID=940cad0a
DTITLE=Anders Widmark Trio - Soul Piano
DYEAR=2004
DGENRE=Jazz
TTITLE0=Raga Muffin Man
TTITLE1=Wonder
TTITLE2=Josephine Sans Soucis
TTITLE3=Truck Driver
TTITLE4=Bye Bye Blackbird
TTITLE5=Two Chord Song
TTITLE6=In-Between
TTITLE7=Sweet Georgia Brown
TTITLE8=Sixteen Weeks
TTITLE9=You Don't Have to Say
EXTD=
EXTT0=
EXTT1=
EXTT2=
EXTT3=
EXTT4=
EXTT5=
EXTT6=
EXTT7=
EXTT8=
EXTT9=
PLAYORDER=
